<mxfile host="app.diagrams.net" agent="Mozilla/5.0 (Macintosh; Intel Mac OS X 10_15_7) AppleWebKit/537.36 (KHTML, like Gecko) Chrome/141.0.0.0 Safari/537.36" version="28.2.8">
  <diagram id="UkxA5ZUKKIgrQe1DU-hQ" name="Page-1">
    <mxGraphModel dx="1426" dy="824" grid="1" gridSize="10" guides="1" tooltips="1" connect="1" arrows="1" fold="1" page="1" pageScale="1" pageWidth="827" pageHeight="1169" math="0" shadow="0">
      <root>
        <mxCell id="0" />
        <mxCell id="1" parent="0" />
        <mxCell id="BIFispnqw11Evwr3hf5f-1" value="Target Systems &amp; Outputs" style="whiteSpace=wrap;strokeWidth=2;" vertex="1" parent="1">
          <mxGeometry x="693" y="1037" width="862" height="176" as="geometry" />
        </mxCell>
        <mxCell id="BIFispnqw11Evwr3hf5f-2" value="Intelligent Automation Platform" style="whiteSpace=wrap;strokeWidth=2;" vertex="1" parent="1">
          <mxGeometry x="20" y="174" width="653" height="1039" as="geometry" />
        </mxCell>
        <mxCell id="BIFispnqw11Evwr3hf5f-3" value="Process Inputs" style="whiteSpace=wrap;strokeWidth=2;" vertex="1" parent="1">
          <mxGeometry x="66" y="20" width="628" height="104" as="geometry" />
        </mxCell>
        <mxCell id="BIFispnqw11Evwr3hf5f-4" value="Emails" style="whiteSpace=wrap;strokeWidth=2;" vertex="1" parent="1">
          <mxGeometry x="101" y="45" width="106" height="54" as="geometry" />
        </mxCell>
        <mxCell id="BIFispnqw11Evwr3hf5f-5" value="PDFs &amp; Forms" style="whiteSpace=wrap;strokeWidth=2;" vertex="1" parent="1">
          <mxGeometry x="257" y="45" width="158" height="54" as="geometry" />
        </mxCell>
        <mxCell id="BIFispnqw11Evwr3hf5f-6" value="System Data Feeds" style="whiteSpace=wrap;strokeWidth=2;" vertex="1" parent="1">
          <mxGeometry x="464" y="45" width="194" height="54" as="geometry" />
        </mxCell>
        <mxCell id="BIFispnqw11Evwr3hf5f-7" value="AI-Powered Data Extraction &#xa;(OCR, NLP, Computer Vision)" style="whiteSpace=wrap;strokeWidth=2;" vertex="1" parent="1">
          <mxGeometry x="213" y="199" width="260" height="126" as="geometry" />
        </mxCell>
        <mxCell id="BIFispnqw11Evwr3hf5f-8" value="Workflow Orchestration &amp; Design" style="whiteSpace=wrap;strokeWidth=2;" vertex="1" parent="1">
          <mxGeometry x="213" y="375" width="260" height="78" as="geometry" />
        </mxCell>
        <mxCell id="BIFispnqw11Evwr3hf5f-9" value="Dual-Logic Engine" style="rhombus;strokeWidth=2;whiteSpace=wrap;" vertex="1" parent="1">
          <mxGeometry x="252" y="503" width="181" height="181" as="geometry" />
        </mxCell>
        <mxCell id="BIFispnqw11Evwr3hf5f-10" value="Rule-Based Engine &#xa;(Standard Business Logic)" style="whiteSpace=wrap;strokeWidth=2;" vertex="1" parent="1">
          <mxGeometry x="86" y="746" width="242" height="78" as="geometry" />
        </mxCell>
        <mxCell id="BIFispnqw11Evwr3hf5f-11" value="AI Decision Layer &#xa;(Handle Exceptions, Prioritise)" style="whiteSpace=wrap;strokeWidth=2;" vertex="1" parent="1">
          <mxGeometry x="378" y="734" width="260" height="102" as="geometry" />
        </mxCell>
        <mxCell id="BIFispnqw11Evwr3hf5f-12" value="RPA Bot Deployment &amp; Execution" style="whiteSpace=wrap;strokeWidth=2;" vertex="1" parent="1">
          <mxGeometry x="213" y="886" width="260" height="78" as="geometry" />
        </mxCell>
        <mxCell id="BIFispnqw11Evwr3hf5f-13" value="Performance Monitoring Setup &#xa;(Dashboards for ROI &amp;amp; Compliance)" style="whiteSpace=wrap;strokeWidth=2;" vertex="1" parent="1">
          <mxGeometry x="55" y="1062" width="260" height="126" as="geometry" />
        </mxCell>
        <mxCell id="BIFispnqw11Evwr3hf5f-14" value="Update ERP/CRM Systems" style="whiteSpace=wrap;strokeWidth=2;" vertex="1" parent="1">
          <mxGeometry x="728" y="1098" width="244" height="54" as="geometry" />
        </mxCell>
        <mxCell id="BIFispnqw11Evwr3hf5f-15" value="Send Notifications" style="whiteSpace=wrap;strokeWidth=2;" vertex="1" parent="1">
          <mxGeometry x="1021" y="1098" width="190" height="54" as="geometry" />
        </mxCell>
        <mxCell id="BIFispnqw11Evwr3hf5f-16" value="Trigger Downstream Actions" style="whiteSpace=wrap;strokeWidth=2;" vertex="1" parent="1">
          <mxGeometry x="1262" y="1098" width="259" height="54" as="geometry" />
        </mxCell>
        <mxCell id="BIFispnqw11Evwr3hf5f-17" value="" style="curved=1;startArrow=none;endArrow=block;exitX=0.5;exitY=1;entryX=0;entryY=0.02;rounded=0;" edge="1" parent="1" source="BIFispnqw11Evwr3hf5f-4" target="BIFispnqw11Evwr3hf5f-7">
          <mxGeometry relative="1" as="geometry">
            <Array as="points">
              <mxPoint x="154" y="174" />
            </Array>
          </mxGeometry>
        </mxCell>
        <mxCell id="BIFispnqw11Evwr3hf5f-18" value="" style="curved=1;startArrow=none;endArrow=block;exitX=0.5;exitY=1;entryX=0.48;entryY=0;rounded=0;" edge="1" parent="1" source="BIFispnqw11Evwr3hf5f-5" target="BIFispnqw11Evwr3hf5f-7">
          <mxGeometry relative="1" as="geometry">
            <Array as="points">
              <mxPoint x="335" y="174" />
            </Array>
          </mxGeometry>
        </mxCell>
        <mxCell id="BIFispnqw11Evwr3hf5f-19" value="" style="curved=1;startArrow=none;endArrow=block;exitX=0.5;exitY=1;entryX=1;entryY=0.08;rounded=0;" edge="1" parent="1" source="BIFispnqw11Evwr3hf5f-6" target="BIFispnqw11Evwr3hf5f-7">
          <mxGeometry relative="1" as="geometry">
            <Array as="points">
              <mxPoint x="561" y="174" />
            </Array>
          </mxGeometry>
        </mxCell>
        <mxCell id="BIFispnqw11Evwr3hf5f-20" value="" style="curved=1;startArrow=none;endArrow=block;exitX=0.5;exitY=1;entryX=0.5;entryY=0;rounded=0;" edge="1" parent="1" source="BIFispnqw11Evwr3hf5f-7" target="BIFispnqw11Evwr3hf5f-8">
          <mxGeometry relative="1" as="geometry">
            <Array as="points" />
          </mxGeometry>
        </mxCell>
        <mxCell id="BIFispnqw11Evwr3hf5f-21" value="" style="curved=1;startArrow=none;endArrow=block;exitX=0.5;exitY=1;entryX=0.5;entryY=0;rounded=0;" edge="1" parent="1" source="BIFispnqw11Evwr3hf5f-8" target="BIFispnqw11Evwr3hf5f-9">
          <mxGeometry relative="1" as="geometry">
            <Array as="points" />
          </mxGeometry>
        </mxCell>
        <mxCell id="BIFispnqw11Evwr3hf5f-22" value="" style="curved=1;startArrow=none;endArrow=block;exitX=0;exitY=0.93;entryX=0.5;entryY=0;rounded=0;" edge="1" parent="1" source="BIFispnqw11Evwr3hf5f-9" target="BIFispnqw11Evwr3hf5f-10">
          <mxGeometry relative="1" as="geometry">
            <Array as="points">
              <mxPoint x="207" y="709" />
            </Array>
          </mxGeometry>
        </mxCell>
        <mxCell id="BIFispnqw11Evwr3hf5f-23" value="" style="curved=1;startArrow=none;endArrow=block;exitX=1;exitY=0.85;entryX=0.5;entryY=0;rounded=0;" edge="1" parent="1" source="BIFispnqw11Evwr3hf5f-9" target="BIFispnqw11Evwr3hf5f-11">
          <mxGeometry relative="1" as="geometry">
            <Array as="points">
              <mxPoint x="508" y="709" />
            </Array>
          </mxGeometry>
        </mxCell>
        <mxCell id="BIFispnqw11Evwr3hf5f-24" value="" style="curved=1;startArrow=none;endArrow=block;exitX=0.5;exitY=1;entryX=0.18;entryY=0;rounded=0;" edge="1" parent="1" source="BIFispnqw11Evwr3hf5f-10" target="BIFispnqw11Evwr3hf5f-12">
          <mxGeometry relative="1" as="geometry">
            <Array as="points">
              <mxPoint x="207" y="861" />
            </Array>
          </mxGeometry>
        </mxCell>
        <mxCell id="BIFispnqw11Evwr3hf5f-25" value="" style="curved=1;startArrow=none;endArrow=block;exitX=0.5;exitY=1;entryX=0.89;entryY=0;rounded=0;" edge="1" parent="1" source="BIFispnqw11Evwr3hf5f-11" target="BIFispnqw11Evwr3hf5f-12">
          <mxGeometry relative="1" as="geometry">
            <Array as="points">
              <mxPoint x="508" y="861" />
            </Array>
          </mxGeometry>
        </mxCell>
        <mxCell id="BIFispnqw11Evwr3hf5f-26" value="" style="curved=1;startArrow=none;endArrow=block;exitX=0.29;exitY=1;entryX=0;entryY=0.17;rounded=0;" edge="1" parent="1" source="BIFispnqw11Evwr3hf5f-12" target="BIFispnqw11Evwr3hf5f-14">
          <mxGeometry relative="1" as="geometry">
            <Array as="points">
              <mxPoint x="238" y="1000" />
              <mxPoint x="238" y="1037" />
            </Array>
          </mxGeometry>
        </mxCell>
        <mxCell id="BIFispnqw11Evwr3hf5f-27" value="" style="curved=1;startArrow=none;endArrow=block;exitX=0.95;exitY=1;entryX=0;entryY=0.22;rounded=0;" edge="1" parent="1" source="BIFispnqw11Evwr3hf5f-12" target="BIFispnqw11Evwr3hf5f-15">
          <mxGeometry relative="1" as="geometry">
            <Array as="points">
              <mxPoint x="570" y="1000" />
              <mxPoint x="570" y="1037" />
            </Array>
          </mxGeometry>
        </mxCell>
        <mxCell id="BIFispnqw11Evwr3hf5f-28" value="" style="curved=1;startArrow=none;endArrow=block;exitX=0.99;exitY=1;entryX=0;entryY=0.24;rounded=0;" edge="1" parent="1" source="BIFispnqw11Evwr3hf5f-12" target="BIFispnqw11Evwr3hf5f-16">
          <mxGeometry relative="1" as="geometry">
            <Array as="points">
              <mxPoint x="590" y="1000" />
              <mxPoint x="590" y="1037" />
            </Array>
          </mxGeometry>
        </mxCell>
        <mxCell id="BIFispnqw11Evwr3hf5f-29" value="Log Data" style="curved=1;startArrow=none;endArrow=block;exitX=0.19;exitY=1;entryX=0.5;entryY=0;rounded=0;" edge="1" parent="1" source="BIFispnqw11Evwr3hf5f-12" target="BIFispnqw11Evwr3hf5f-13">
          <mxGeometry relative="1" as="geometry">
            <Array as="points">
              <mxPoint x="185" y="1000" />
            </Array>
          </mxGeometry>
        </mxCell>
      </root>
    </mxGraphModel>
  </diagram>
</mxfile>
